<?xml version="1.0" encoding="UTF-8" standalone="no" ?>
<!DOCTYPE svg PUBLIC "-//W3C//DTD SVG 1.1//EN" "http://www.w3.org/Graphics/SVG/1.1/DTD/svg11.dtd">
<svg xmlns="http://www.w3.org/2000/svg" xmlns:xlink="http://www.w3.org/1999/xlink" version="1.1" width="323" height="129.51200000000003" xml:space="preserve">
<desc>Created with Fabric.js 1.6.0-rc.1</desc>
<defs></defs>
  <g transform="translate(142.5 63.8)">
   <text font-family="Amerika Sans" font-size="40" font-weight="bold" style="stroke: none; stroke-width: 1; stroke-dasharray: none; stroke-linecap: butt; stroke-linejoin: miter; stroke-miterlimit: 10; fill: #2c8cdb; fill-rule: nonzero; opacity: 1;" ><tspan x="-14" y="8.98" style="stroke: none; stroke-width: 0; stroke-dasharray: none; stroke-linecap: butt; stroke-linejoin: miter; stroke-miterlimit: 4; fill: #2c8cdb; fill-rule: ; opacity: 1;">D</tspan></text>
 </g>
<g style="stroke: none; stroke-width: 1; stroke-dasharray: none; stroke-linecap: butt; stroke-linejoin: miter; stroke-miterlimit: 10; fill: none; fill-rule: nonzero; opacity: 1;" transform="translate(10 10.000000000000007) scale(0.19 0.18)" >
  <path d="M 534.2 258 c -57.1 18.7 -174.1 -54.5 -234.2 -54.5 c -60.1 0 -177.1 73.1 -234.2 54.5 c -3.8 -1.2 -8.6 -8.1 -12.2 -14.1 c -4.2 18.3 -6.2 37.1 -6.2 56.1 c 0 15.4 1.4 30.7 4.1 45.6 c 8.6 -7.2 23.6 -19.1 29.4 -20.9 c 15.3 -4.7 44.6 3.8 55.6 10.4 c 10.6 6.3 27.1 38 27.1 38 s 17 31.4 16.3 43.7 c -0.8 12.8 -14.1 37.9 -26.6 47.9 c -4.8 3.8 -22.4 9.7 -32.9 12.9 c 0.3 0.3 0.7 0.7 1 1 c 23.2 23.2 50.2 41.4 80.3 54.1 c 0.7 0.3 1.4 0.6 2.2 0.9 c -2.4 -7.7 -5.1 -18.2 -3.9 -22.9 c 3.7 -14.4 29.8 -34.4 43.3 -40.5 c 13 -5.9 56.8 -5.6 56.8 -5.6 s 43.8 -0.3 56.8 5.6 c 13.5 6.1 39.6 26.1 43.3 40.5 c 1.2 4.7 -1.5 15.2 -3.9 22.9 c 0.7 -0.3 1.4 -0.6 2.2 -0.9 c 30.1 -12.7 57.1 -30.9 80.3 -54.1 l 0.1 -0.1 c -9.6 -2.9 -30.7 -9.7 -36 -13.9 c -12.5 -10 -25.9 -35.1 -26.6 -47.9 c -0.7 -12.4 16.3 -43.7 16.3 -43.7 s 16.4 -31.7 27.1 -38 c 11.1 -6.6 40.4 -15.1 55.6 -10.4 c 6.8 2.1 25.7 17.8 32.9 23.9 c 3.1 -16 4.7 -32.2 4.7 -48.5 c 0 -19.1 -2.1 -37.9 -6.2 -56.1 C 542.8 249.9 538 256.7 534.2 258 L 534.2 258 z" style="stroke: none; stroke-width: 1; stroke-dasharray: none; stroke-linecap: butt; stroke-linejoin: miter; stroke-miterlimit: 10; fill: rgb(0,0,0); fill-rule: nonzero; opacity: 1;" transform=" matrix(1 0 0 1 0 0) " stroke-linecap="round" />
  <path d="M 300 0 C 134.3 0 0 134.3 0 300 c 0 165.7 134.3 300 300 300 c 165.7 0 300 -134.3 300 -300 C 600 134.3 465.7 0 300 0 z M 393.1 542.8 C 393.1 542.8 393.1 542.8 393.1 542.8 L 393.1 542.8 c -6.3 2.4 -12.6 4.5 -18.9 6.4 l -0.1 0 c -12 3.6 -24.2 6.2 -36.5 8 l 0 0 c -0.4 0.1 -0.8 0.1 -1.2 0.2 c -1.6 0.2 -3.2 0.4 -4.8 0.6 h 0 c -1 0.1 -1.9 0.2 -2.9 0.3 l 0 0 c -3.1 0.3 -6.3 0.6 -9.5 0.9 l 0 0 c -1.2 0.1 -2.4 0.2 -3.5 0.2 c 0 0 0 0 -0.1 0 c -0.9 0.1 -1.8 0.1 -2.7 0.2 l 0 0 c -1.4 0.1 -2.8 0.1 -4.1 0.2 l -0.1 0 c -0.7 0 -1.4 0.1 -2.1 0.1 l 0 0 c -2.1 0.1 -4.3 0.1 -6.4 0.1 h 0 c -2.1 0 -4.3 0 -6.4 -0.1 h 0 c -0.7 0 -1.5 -0.1 -2.2 -0.1 h 0 c -1.4 0 -2.7 -0.1 -4.1 -0.2 h 0 c -5.3 -0.3 -10.5 -0.7 -15.8 -1.3 l 0 0 c -4.5 -0.5 -9 -1.1 -13.5 -1.8 c -0.4 -0.1 -0.9 -0.1 -1.3 -0.2 c -1.9 -0.3 -3.8 -0.7 -5.7 -1 l 0 0 c -1.8 -0.3 -3.5 -0.7 -5.3 -1.1 c 0 0 0 0 0 0 c -51.7 -11 -97.7 -37.4 -133 -74.2 l 0 0 c -2 -2.1 -4 -4.2 -5.9 -6.4 L 106 473 c -1.8 -2 -3.6 -4.1 -5.4 -6.2 l -0.3 -0.4 c -3.8 -4.5 -7.4 -9.2 -10.8 -13.9 l -0.3 -0.3 c -3.5 -4.8 -6.8 -9.7 -9.9 -14.8 c 0 -0.1 -0.1 -0.1 -0.1 -0.2 c -8.7 -13.9 -16 -28.7 -21.9 -44 c -0.1 -0.2 -0.1 -0.4 -0.2 -0.6 c -0.9 -2.3 -1.8 -4.7 -2.6 -7 c -0.1 -0.3 -0.2 -0.5 -0.3 -0.8 c -1.7 -5 -3.3 -10.1 -4.7 -15.2 c -0.2 -0.6 -0.3 -1.1 -0.5 -1.7 c -0.5 -2 -1.1 -4 -1.5 -6 c -0.2 -0.6 -0.3 -1.3 -0.5 -1.9 c -0.7 -2.7 -1.3 -5.5 -1.8 -8.2 c -0.1 -0.3 -0.1 -0.6 -0.2 -0.9 h 0 c -3.3 -16.8 -5 -33.9 -5 -51 c 0 -102 58.8 -190.3 144.3 -232.9 l 0 0 l 0 0 c 9.6 -4.8 19.4 -8.9 29.5 -12.4 l 0.1 0 l 0 0 c 1.6 -0.6 3.2 -1.1 4.8 -1.6 l 0 0 l 0.1 0 l 0.1 0 c 2.1 -0.7 4.1 -1.3 6.2 -2 l 0.1 0 c 4.2 -1.3 8.5 -2.4 12.8 -3.5 l 0 0 c 6.3 -1.5 12.6 -2.8 19 -3.9 l 0 0 c 2.2 -0.4 4.4 -0.7 6.6 -1 l 0 0 c 2.2 -0.3 4.4 -0.6 6.6 -0.8 l 0 0 c 2.2 -0.3 4.5 -0.5 6.7 -0.7 l 0 0 l 0.6 0 c 12.9 -1.1 25.8 -1.2 38.7 -0.4 h 0 l 0.8 0.1 l 0 0 c 1.6 0.1 3.3 0.2 4.9 0.4 l 0 0 c 0.2 0 0.4 0 0.6 0.1 c 0 0 0 0 0 0 c 2.2 0.2 4.5 0.4 6.7 0.7 l 0 0 c 2.2 0.3 4.4 0.5 6.6 0.8 l 0 0 c 2.2 0.3 4.4 0.6 6.6 1 h 0 c 2.2 0.4 4.4 0.8 6.5 1.2 l 0 0 l 0.6 0.1 c 4 0.8 8 1.7 11.9 2.6 l 0 0 c 2.1 0.5 4.3 1.1 6.4 1.6 l 0.1 0 c 2.1 0.6 4.2 1.2 6.3 1.8 c 0 0 0.1 0 0.1 0 c 2.2 0.7 4.4 1.3 6.5 2 l 0 0 c 1.6 0.5 3.2 1.1 4.8 1.6 l 0 0 l 0.2 0.1 c 10 3.5 19.9 7.7 29.4 12.4 l 0 0 l 0.2 0.1 c 0 0 0 0 0 0 C 501.3 109.8 560 198 560 300 C 560 410.8 490.7 505.3 393.1 542.8 L 393.1 542.8 z" style="stroke: none; stroke-width: 1; stroke-dasharray: none; stroke-linecap: butt; stroke-linejoin: miter; stroke-miterlimit: 10; fill: #2c8cd6; fill-rule: nonzero; opacity: 1;" transform=" matrix(1 0 0 1 0 0) " stroke-linecap="round" />
  <path d="M 300 552.7 c -33.3 0 -65.7 -6.4 -96.2 -19 c 1 3 2 6.1 3.1 9.1 c 0.1 0 0.2 0.1 0.3 0.1 c 1 0.4 2.1 0.8 3.1 1.2 c 0.5 0.2 1 0.4 1.5 0.6 c 1.1 0.4 2.1 0.8 3.2 1.1 c 0.5 0.2 1 0.3 1.5 0.5 c 1.1 0.4 2.3 0.7 3.4 1.1 c 0.4 0.1 0.9 0.3 1.3 0.4 c 1.2 0.4 2.4 0.8 3.6 1.1 c 0.4 0.1 0.7 0.2 1.1 0.3 c 1.3 0.4 2.7 0.8 4 1.1 c 0.3 0.1 0.5 0.2 0.8 0.2 c 1.5 0.4 2.9 0.8 4.4 1.2 c 0.2 0 0.3 0.1 0.5 0.1 c 1.6 0.4 3.2 0.8 4.7 1.2 l 0.2 0 c 1.6 0.4 3.3 0.8 4.9 1.1 l 0.3 0.1 l 0.5 0.1 c 1.5 0.3 3 0.6 4.5 0.9 c 0.4 0.1 0.9 0.2 1.3 0.2 c 0.1 0 0.3 0.1 0.4 0.1 c 1.8 0.3 3.6 0.6 5.4 0.9 l 0.8 0.1 c 1.2 0.2 2.5 0.4 3.7 0.6 c 0.8 0.1 1.7 0.2 2.5 0.4 c 1.2 0.2 2.3 0.3 3.5 0.5 c 0.1 0 0.2 0 0.4 0 c 0.8 0.1 1.7 0.2 2.5 0.3 c 1.1 0.1 2.2 0.2 3.3 0.3 c 1.1 0.1 2.1 0.2 3.2 0.3 c 1 0.1 2 0.2 3.1 0.3 c 1.2 0.1 2.3 0.2 3.5 0.2 c 0.9 0.1 1.9 0.1 2.8 0.2 c 1.4 0.1 2.7 0.1 4.1 0.2 c 0.7 0 1.5 0.1 2.2 0.1 c 4.3 0.1 8.6 0.1 12.9 0 c 0.7 0 1.4 -0.1 2.1 -0.1 c 1.4 0 2.8 -0.1 4.2 -0.2 c 0.9 0 1.8 -0.1 2.7 -0.2 c 1.2 -0.1 2.4 -0.1 3.6 -0.2 c 1 -0.1 2 -0.2 3 -0.2 c 1.1 -0.1 2.1 -0.2 3.2 -0.3 c 1.1 -0.1 2.2 -0.2 3.2 -0.3 c 1 -0.1 1.9 -0.2 2.9 -0.3 c 1.2 -0.1 2.3 -0.3 3.5 -0.4 c 0.5 -0.1 0.9 -0.1 1.4 -0.2 c 0.4 -0.1 0.8 -0.1 1.2 -0.2 c 1.2 -0.2 2.5 -0.4 3.7 -0.6 c 0.7 -0.1 1.5 -0.2 2.2 -0.4 c 1.3 -0.2 2.7 -0.5 4 -0.7 c 0.6 -0.1 1.2 -0.2 1.7 -0.3 c 1.5 -0.3 2.9 -0.6 4.4 -0.9 c 0.3 -0.1 0.6 -0.1 0.9 -0.2 c 6.6 -1.4 13.1 -3.1 19.6 -5 c 6.4 -1.9 12.6 -4 18.8 -6.4 l 0.1 0 c 0 0 1.5 -3.9 3.1 -9.1 C 365.7 546.3 333.3 552.7 300 552.7 L 300 552.7 z M 67.2 398.3 c -7.2 -17 -12.5 -34.6 -15.8 -52.8 c -3.8 3.1 -6.3 5.3 -6.4 5.4 c 0.1 0.3 0.1 0.6 0.2 0.9 c 0 0.1 0 0.2 0.1 0.3 l 0.1 0.3 c 0.5 2.5 1.1 5.1 1.7 7.6 c 0.2 0.6 0.3 1.3 0.5 1.9 c 0.5 2 1 4 1.5 6 c 0.2 0.6 0.3 1.1 0.5 1.7 c 1.4 5.1 3 10.2 4.7 15.2 c 0.1 0.3 0.2 0.5 0.3 0.8 c 0.8 2.4 1.7 4.7 2.6 7 l 0.2 0.6 c 3.7 9.7 8.1 19.2 12.9 28.4 c 2.8 5.3 5.8 10.5 9 15.6 l 0.1 0.2 c 3.2 5.2 6.6 10.2 10.2 15.1 c 3.5 4.8 7.1 9.4 10.8 13.9 l 0.3 0.4 c 1.8 2.1 3.6 4.2 5.4 6.2 l 0.5 0.6 c 1.9 2.2 3.9 4.3 5.9 6.4 l 0 0 c 0 0 3.2 -0.9 7.9 -2.4 C 97.6 454.6 79.7 428 67.2 398.3 L 67.2 398.3 z M 178.8 70 c -2.2 1.2 -4.4 2.4 -6.6 3.6 c -0.2 0.1 -0.4 0.2 -0.6 0.3 c -1.7 0.9 -3.3 1.9 -5 2.9 c -0.3 0.2 -0.7 0.4 -1 0.6 c -1.8 1.1 -3.5 2.2 -5.2 3.3 c -0.3 0.2 -0.5 0.3 -0.7 0.5 c -1.6 1 -3.2 2.1 -4.8 3.2 c -0.2 0.1 -0.4 0.3 -0.7 0.4 c -1.7 1.2 -3.5 2.4 -5.2 3.6 c -0.3 0.2 -0.5 0.4 -0.7 0.5 c -1.7 1.2 -3.4 2.5 -5.1 3.8 c -5.4 4.1 -10.7 8.4 -15.7 12.9 l -0.4 0.4 c -3.4 3 -6.7 6.1 -9.9 9.3 c -32.6 32.3 -56.7 73.2 -68.6 119.1 c 0 0 2.2 4.4 5.2 9.4 c 3.3 -14.4 7.8 -28.6 13.6 -42.2 c 12.7 -30.1 30.9 -57.1 54.2 -80.3 c 23.2 -23.2 50.2 -41.4 80.3 -54.2 C 232.8 54 265.9 47.3 300 47.3 s 67.2 6.7 98.3 19.9 c 30.1 12.7 57.1 30.9 80.3 54.2 c 23.2 23.2 41.4 50.2 54.2 80.3 c 5.8 13.6 10.3 27.8 13.6 42.2 c 3 -5 5.2 -9.4 5.2 -9.4 c -11.9 -45.8 -36 -86.7 -68.6 -119 l -0.2 -0.2 c -6.4 -6.3 -13.1 -12.3 -20.1 -18 l -0.7 -0.5 c -1.7 -1.3 -3.4 -2.7 -5.1 -4 l -0.1 -0.1 c -1.7 -1.3 -3.3 -2.5 -5 -3.7 c -0.3 -0.2 -0.5 -0.4 -0.8 -0.6 c -1.7 -1.2 -3.4 -2.4 -5.1 -3.6 c -0.2 -0.2 -0.5 -0.3 -0.7 -0.5 c -1.6 -1.1 -3.2 -2.1 -4.8 -3.2 c -0.3 -0.2 -0.5 -0.3 -0.8 -0.5 c -1.7 -1.1 -3.5 -2.2 -5.2 -3.3 c -0.3 -0.2 -0.7 -0.4 -1 -0.6 c -1.6 -1 -3.3 -1.9 -4.9 -2.9 c -0.2 -0.1 -0.4 -0.2 -0.6 -0.3 c -1.8 -1 -3.6 -2 -5.4 -3 c -0.4 -0.2 -0.8 -0.4 -1.2 -0.7 c -1.8 -1 -3.6 -1.9 -5.5 -2.8 l -0.3 -0.1 c -9.4 -4.7 -19.2 -8.8 -29.1 -12.3 l -0.3 -0.1 l -0.2 -0.1 c -1.6 -0.6 -3.2 -1.1 -4.8 -1.6 l -0.3 -0.1 c -2.1 -0.7 -4.2 -1.3 -6.2 -2 l -0.1 0 c -2.1 -0.6 -4.2 -1.2 -6.3 -1.8 l -0.1 0 c -2.1 -0.6 -4.3 -1.1 -6.4 -1.6 l 0 0 c -2.2 -0.5 -4.3 -1 -6.5 -1.5 l -0.6 -0.1 c -1.6 -0.3 -3.2 -0.7 -4.9 -1 l -0.6 -0.1 c -2.2 -0.4 -4.3 -0.8 -6.5 -1.2 h 0 c -2.2 -0.4 -4.4 -0.7 -6.6 -1 l 0 0 c -4.4 -0.6 -8.9 -1.1 -13.3 -1.5 c -0.2 0 -0.4 0 -0.7 -0.1 c -1.9 -0.2 -3.8 -0.3 -5.8 -0.4 c -1.7 -0.1 -3.4 -0.2 -5 -0.3 c -0.1 0 -0.3 0 -0.4 0 c -3.7 -0.2 -7.3 -0.2 -11 -0.2 c -3.7 0 -7.3 0.1 -11 0.2 l -0.3 0 l -0.1 0 c -2 0.1 -3.9 0.2 -5.9 0.3 c -1.7 0.1 -3.3 0.2 -5 0.4 l -0.6 0.1 c -2.2 0.2 -4.5 0.4 -6.7 0.7 c -2.2 0.3 -4.4 0.5 -6.6 0.8 l 0 0 c -2.2 0.3 -4.4 0.6 -6.6 1 l 0 0 c -4.2 0.7 -8.4 1.5 -12.5 2.4 c -2.2 0.5 -4.4 1 -6.5 1.5 c 0 0 0 0 0 0 c -2.1 0.5 -4.3 1.1 -6.4 1.7 l -0.1 0 c -2.1 0.6 -4.2 1.2 -6.3 1.8 c 0 0 -0.1 0 -0.1 0 c -2.1 0.6 -4.2 1.3 -6.2 2 l -0.2 0.1 c -1.7 0.5 -3.3 1.1 -5 1.7 l -0.2 0.1 c -10 3.5 -19.8 7.6 -29.2 12.4 l 0 0 l -0.1 0 C 182.4 68.1 180.6 69.1 178.8 70 L 178.8 70 z M 478.7 478.6 c 2.9 0.9 4.7 1.4 4.7 1.4 c 19.2 -18.4 28.9 -33.1 41.4 -56.7 s 20.5 -43.7 26 -72.3 c 0 0 -1.1 -0.9 -2.9 -2.5 c -3.3 17.1 -8.4 33.8 -15.2 49.8 C 520.1 428.4 501.9 455.4 478.7 478.6 L 478.7 478.6 z" style="stroke: none; stroke-width: 1; stroke-dasharray: none; stroke-linecap: butt; stroke-linejoin: miter; stroke-miterlimit: 10; fill: #FFFFFF; fill-rule: nonzero; opacity: 1;" transform=" matrix(1 0 0 1 0 0) " stroke-linecap="round" />
  <path d="M 293.5 559.9 c -0.7 0 -1.5 -0.1 -2.2 -0.1 C 292.1 559.8 292.8 559.9 293.5 559.9 z M 308.6 559.8 c -0.7 0 -1.4 0.1 -2.1 0.1 C 307.2 559.9 307.9 559.8 308.6 559.8 z M 315.5 559.5 c -0.9 0.1 -1.8 0.1 -2.7 0.2 C 313.7 559.6 314.6 559.5 315.5 559.5 z M 47.3 300 c 0 -19.1 2.1 -37.9 6.2 -56.1 c -3 -5 -5.2 -9.4 -5.2 -9.4 c 11.9 -45.8 36 -86.7 68.6 -119.1 l 0.1 -0.1 c 3.2 -3.1 6.4 -6.2 9.8 -9.2 l 0.4 -0.4 c 3.5 -3.1 7 -6 10.6 -8.9 c 1.7 -1.4 3.4 -2.7 5.1 -4 l 0.1 -0.1 c 1.7 -1.3 3.4 -2.5 5.1 -3.7 c 0.2 -0.2 0.5 -0.4 0.7 -0.5 c 1.7 -1.2 3.4 -2.4 5.2 -3.6 c 0.2 -0.1 0.4 -0.3 0.7 -0.4 c 1.6 -1.1 3.2 -2.1 4.8 -3.2 c 0.3 -0.2 0.5 -0.3 0.7 -0.5 c 1.7 -1.1 3.5 -2.2 5.2 -3.3 c 0.3 -0.2 0.7 -0.4 1 -0.6 c 1.6 -1 3.3 -1.9 5 -2.9 c 0.2 -0.1 0.4 -0.2 0.6 -0.3 c 2.2 -1.2 4.4 -2.4 6.6 -3.6 c 1.8 -1 3.7 -1.9 5.5 -2.8 l 0.1 0 C 98.8 109.7 40 198 40 300 c 0 17.5 1.7 34.5 5 51 c 0.1 -0.1 2.6 -2.3 6.4 -5.4 C 48.7 330.5 47.3 315.3 47.3 300 z M 67.3 416 L 67.3 416 z M 45.3 352.2 c 0 -0.1 0 -0.2 -0.1 -0.3 c 0.6 2.8 1.2 5.5 1.8 8.2 c -0.6 -2.5 -1.2 -5.1 -1.7 -7.6 L 45.3 352.2 z M 240.4 553.1 c -1.6 -0.4 -3.2 -0.8 -4.7 -1.2 c -0.2 0 -0.3 -0.1 -0.5 -0.1 c -1.5 -0.4 -2.9 -0.8 -4.4 -1.2 c -0.3 -0.1 -0.5 -0.2 -0.8 -0.2 c -1.3 -0.4 -2.7 -0.8 -4 -1.1 c -0.4 -0.1 -0.7 -0.2 -1.1 -0.3 c -1.2 -0.4 -2.4 -0.7 -3.6 -1.1 c -0.4 -0.1 -0.9 -0.3 -1.3 -0.4 c -1.1 -0.4 -2.3 -0.7 -3.4 -1.1 c -0.5 -0.2 -1 -0.3 -1.5 -0.5 c -1.1 -0.4 -2.2 -0.7 -3.2 -1.1 c -0.5 -0.2 -1 -0.4 -1.5 -0.6 c -1 -0.4 -2.1 -0.8 -3.1 -1.2 c -0.1 0 -0.2 -0.1 -0.3 -0.1 c 0 -0.1 -1.5 -3.9 -3.1 -9.1 c -0.7 -0.3 -1.4 -0.6 -2.2 -0.9 c -30.1 -12.7 -57.1 -30.9 -80.3 -54.1 c -0.3 -0.3 -0.7 -0.7 -1 -1 c -4.6 1.4 -7.8 2.4 -7.9 2.4 c 35.3 36.8 81.3 63.2 133 74.2 c -1.7 -0.4 -3.3 -0.7 -4.9 -1.1 C 240.5 553.1 240.5 553.1 240.4 553.1 L 240.4 553.1 z M 213.8 54.7 c -0.1 0 -0.2 0.1 -0.2 0.1 L 213.8 54.7 z M 283.5 40.6 c 1.7 -0.1 3.4 -0.2 5.1 -0.3 l 0.1 0 c -2 0.1 -4 0.2 -6 0.3 C 283 40.6 283.3 40.6 283.5 40.6 z M 245.8 554.3 c 1.7 0.3 3.3 0.7 5 1 c -1.5 -0.3 -3 -0.6 -4.5 -0.9 L 245.8 554.3 z M 245.1 45.9 c 1.6 -0.4 3.3 -0.7 4.9 -1 c 0.2 0 0.4 -0.1 0.5 -0.1 C 248.8 45.1 247 45.5 245.1 45.9 z M 353.6 554.4 c -1.5 0.3 -2.9 0.6 -4.4 0.9 c -0.6 0.1 -1.2 0.2 -1.7 0.3 c -1.3 0.2 -2.7 0.5 -4 0.7 c -0.7 0.1 -1.5 0.3 -2.2 0.4 c 4.5 -0.7 8.9 -1.5 13.3 -2.5 C 354.3 554.3 353.9 554.3 353.6 554.4 L 353.6 554.4 z M 331.5 558.1 c 1.6 -0.2 3.2 -0.4 4.8 -0.6 c -0.5 0.1 -0.9 0.1 -1.4 0.2 C 333.8 557.8 332.7 557.9 331.5 558.1 L 331.5 558.1 z M 311 40.3 c 0.1 0 0.3 0 0.4 0 c 1.7 0.1 3.4 0.2 5 0.3 C 311 40.2 305.5 40 300 40 c -3.7 0 -7.3 0.1 -11 0.2 c 3.6 -0.2 7.3 -0.2 11 -0.2 C 303.7 40.1 307.4 40.1 311 40.3 z M 415.8 67.2 c 1.8 0.9 3.7 1.9 5.5 2.8 l 1.2 0.7 c 1.8 1 3.6 1.9 5.4 3 c 0.2 0.1 0.4 0.2 0.6 0.3 c 1.7 0.9 3.3 1.9 4.9 2.9 c 0.3 0.2 0.7 0.4 1 0.6 c 1.8 1.1 3.5 2.1 5.2 3.3 c 0.3 0.2 0.5 0.3 0.8 0.5 c 1.6 1 3.2 2.1 4.8 3.2 c 0.2 0.2 0.5 0.3 0.7 0.5 c 1.7 1.2 3.4 2.4 5.1 3.6 c 0.3 0.2 0.5 0.4 0.8 0.6 c 1.7 1.2 3.4 2.4 5 3.7 l 0.1 0.1 c 1.7 1.3 3.4 2.6 5.1 4 l 0.7 0.5 c 3.4 2.7 6.7 5.5 9.9 8.4 l 0.5 0.4 c 3.3 3 6.6 6 9.7 9.2 l 0.2 0.2 c 32.6 32.3 56.7 73.2 68.6 119 c 0 0 -2.2 4.4 -5.2 9.4 c 4.1 18.3 6.2 37.1 6.2 56.1 c 0 16.5 -1.6 32.7 -4.7 48.5 c 1 0.8 1.9 1.6 2.9 2.5 c -5.5 28.6 -13.5 48.7 -26 72.3 s -22.2 38.3 -41.4 56.7 c 0 0 -1.8 -0.5 -4.7 -1.4 l -0.1 0.1 c -23.2 23.2 -50.2 41.4 -80.3 54.2 c -0.7 0.3 -1.4 0.6 -2.2 0.9 c -1 3.1 -2 6.1 -3.1 9.1 C 490.7 505.3 560 410.8 560 300 C 560 198.1 501.3 109.8 415.8 67.2 z M 280.9 559.3 c -1 -0.1 -2.1 -0.2 -3.1 -0.3 c -1.1 -0.1 -2.1 -0.2 -3.2 -0.3 c -1.1 -0.1 -2.2 -0.2 -3.3 -0.3 c 5.2 0.6 10.5 1 15.8 1.3 c -0.9 0 -1.9 -0.1 -2.8 -0.2 C 283.2 559.4 282.1 559.3 280.9 559.3 L 280.9 559.3 z M 265 557.6 c -0.8 -0.1 -1.7 -0.2 -2.5 -0.4 c -1.3 -0.2 -2.5 -0.4 -3.7 -0.6 l -0.8 -0.1 c 3.6 0.6 7.3 1.1 11 1.6 c -0.1 0 -0.2 0 -0.4 0 C 267.3 557.9 266.2 557.8 265 557.6 z M 322.2 559 c -1 0.1 -2 0.2 -3 0.2 c 2.1 -0.2 4.1 -0.3 6.2 -0.5 C 324.3 558.8 323.2 558.9 322.2 559 L 322.2 559 z M 252.1 555.5 c 0.1 0 0.3 0.1 0.4 0.1 C 252.4 555.6 252.2 555.6 252.1 555.5 z M 355.4 46 c -0.2 0 -0.4 -0.1 -0.6 -0.1 L 355.4 46 z M 415.6 67.1 c -9.5 -4.7 -19.3 -8.9 -29.4 -12.4 l 0.3 0.1 C 396.4 58.3 406.1 62.4 415.6 67.1 z" style="stroke: none; stroke-width: 1; stroke-dasharray: none; stroke-linecap: butt; stroke-linejoin: miter; stroke-miterlimit: 10; fill: #FFFFFF; fill-rule: nonzero; opacity: 1;" transform=" matrix(1 0 0 1 0 0) " stroke-linecap="round" />
  <ellipse cx="300" cy="300" rx="80.3" ry="40.1" style="stroke: none; stroke-width: 1; stroke-dasharray: none; stroke-linecap: butt; stroke-linejoin: miter; stroke-miterlimit: 10; fill: #2c8cd6; fill-rule: nonzero; opacity: 1;" transform=" matrix(1 0 0 1 0 0) "/>
</g>
  <g transform="translate(251.5 93.8)">
   <text font-family="Arial" font-size="40" font-weight="normal" style="stroke: none; stroke-width: 1; stroke-dasharray: none; stroke-linecap: butt; stroke-linejoin: miter; stroke-miterlimit: 10; fill: #000000; fill-rule: nonzero; opacity: 1;" ><tspan x="0" y="8.98" fill="#000000"></tspan></text>
 </g>
  <g transform="translate(187.5 63.8)">
   <text font-family="Bombardier" font-size="40" font-weight="normal" style="stroke: none; stroke-width: 1; stroke-dasharray: none; stroke-linecap: butt; stroke-linejoin: miter; stroke-miterlimit: 10; fill: #2c8cdb; fill-rule: nonzero; opacity: 1;" ><tspan x="-31" y="8.98" style="stroke: none; stroke-width: 0; stroke-dasharray: none; stroke-linecap: butt; stroke-linejoin: miter; stroke-miterlimit: 4; fill: #2c8cdb; fill-rule: ; opacity: 1;">r</tspan><tspan x="-16" y="8.98" style="stroke: none; stroke-width: 0; stroke-dasharray: none; stroke-linecap: butt; stroke-linejoin: miter; stroke-miterlimit: 4; fill: #2c8cdb; fill-rule: ; opacity: 1;">i</tspan><tspan x="-7" y="8.98" style="stroke: none; stroke-width: 0; stroke-dasharray: none; stroke-linecap: butt; stroke-linejoin: miter; stroke-miterlimit: 4; fill: #2c8cdb; fill-rule: ; opacity: 1;">v</tspan><tspan x="11" y="8.98" style="stroke: none; stroke-width: 0; stroke-dasharray: none; stroke-linecap: butt; stroke-linejoin: miter; stroke-miterlimit: 4; fill: #2c8cdb; fill-rule: ; opacity: 1;">e</tspan></text>
 </g>
  <g transform="translate(229 63.8)">
   <text font-family="ADAMCG PRO" font-size="40" font-weight="normal" style="stroke: none; stroke-width: 1; stroke-dasharray: none; stroke-linecap: butt; stroke-linejoin: miter; stroke-miterlimit: 10; fill: #2c8cdb; fill-rule: nonzero; opacity: 1;" ><tspan x="-10.5" y="8.98" style="stroke: none; stroke-width: 0; stroke-dasharray: none; stroke-linecap: butt; stroke-linejoin: miter; stroke-miterlimit: 4; fill: #2c8cdb; fill-rule: ; opacity: 1;">S</tspan></text>
 </g>
  <g transform="translate(275.5 63.8)">
   <text font-family="Bombardier" font-size="40" font-weight="normal" style="stroke: none; stroke-width: 1; stroke-dasharray: none; stroke-linecap: butt; stroke-linejoin: miter; stroke-miterlimit: 10; fill: #2c8cdb; fill-rule: nonzero; opacity: 1;" ><tspan x="-38" y="8.98" style="stroke: none; stroke-width: 0; stroke-dasharray: none; stroke-linecap: butt; stroke-linejoin: miter; stroke-miterlimit: 4; fill: #2c8cdb; fill-rule: ; opacity: 1;">m</tspan><tspan x="-9" y="8.98" style="stroke: none; stroke-width: 0; stroke-dasharray: none; stroke-linecap: butt; stroke-linejoin: miter; stroke-miterlimit: 4; fill: #2c8cdb; fill-rule: ; opacity: 1;">a</tspan><tspan x="11" y="8.98" style="stroke: none; stroke-width: 0; stroke-dasharray: none; stroke-linecap: butt; stroke-linejoin: miter; stroke-miterlimit: 4; fill: #2c8cdb; fill-rule: ; opacity: 1;">r</tspan><tspan x="26" y="8.98" style="stroke: none; stroke-width: 0; stroke-dasharray: none; stroke-linecap: butt; stroke-linejoin: miter; stroke-miterlimit: 4; fill: #2c8cdb; fill-rule: ; opacity: 1;">t</tspan></text>
 </g>
</svg>